<svg width="150" height="45" viewBox="0 0 150 45" xmlns="http://www.w3.org/2000/svg"><g transform="translate(0 .306)" fill="#FFF" fill-rule="evenodd"><path d="M122.06 25.82a.411.411 0 0 0 .593 0l.945-.982a.411.411 0 0 0 0-.571 29.824 29.824 0 0 1-3.806-5.04 19.879 19.879 0 0 0 2.53-9.458V7.714h.614a.422.422 0 0 0 .422-.422V5.947a.422.422 0 0 0-.422-.422h-6.566v-1.82a.422.422 0 0 0-.422-.422h-1.345a.422.422 0 0 0-.422.422v3.587c0 .233.19.422.422.422h5.504v2.055a17.082 17.082 0 0 1-1.602 7.067 18.486 18.486 0 0 1-1.825-7.227.411.411 0 0 0-.411-.406h-1.362a.411.411 0 0 0-.416.422 21.56 21.56 0 0 0 2.76 9.608 25.089 25.089 0 0 1-4.052 5.018.411.411 0 0 0-.032.566l.881 1.067a.411.411 0 0 0 .593.038 26.386 26.386 0 0 0 3.864-4.57 30.817 30.817 0 0 0 3.555 4.468z"/><path d="M67.67 21.352c.767 0 1.389-.621 1.389-1.388V6.406c0-.767-.622-1.388-1.388-1.388h-4.767V3.71a.416.416 0 0 0-.416-.416h-1.399a.416.416 0 0 0-.416.416v1.308h-4.655c-.767 0-1.388.621-1.388 1.388v13.548c0 .766.621 1.388 1.388 1.388h4.655v4.051c0 .23.186.417.416.417h1.399c.23 0 .416-.187.416-.417v-4.04h4.767zm-1.195-2.231h-3.571v-4.804h3.918v4.462a.347.347 0 0 1-.347.315v.027zm0-11.856c.192 0 .347.155.347.347v4.463h-3.918V7.27l3.571-.005zm-9.267 0h3.465v4.804H56.86V7.607a.347.347 0 0 1 .347-.369v.027zm0 11.856a.347.347 0 0 1-.347-.347v-4.463h3.812v4.805l-3.465.005z"/><path d="M100.27 9.763h1.687l-1.873 2.707a.411.411 0 0 0 .106.576l1.121.774a.411.411 0 0 0 .577-.106l1.874-2.707a.411.411 0 0 0-.107-.576l-.966-.673h2.791v3.886c0 .233.19.422.422.422h1.393a.422.422 0 0 0 .422-.422V9.758h2.67l-.956.678a.411.411 0 0 0-.107.576l1.874 2.707a.411.411 0 0 0 .576.107l1.121-.774a.411.411 0 0 0 .107-.577l-1.874-2.706h1.81a.422.422 0 0 0 .421-.422V7.959a.422.422 0 0 0-.421-.422h-1.842l.032-.032 1.88-2.7a.411.411 0 0 0-.108-.577l-1.12-.774a.411.411 0 0 0-.577.106l-1.874 2.707a.411.411 0 0 0 .107.576l1.014.705h-2.728V3.662a.422.422 0 0 0-.427-.46h-1.388a.422.422 0 0 0-.421.423V7.51h-2.835l1.014-.705a.411.411 0 0 0 .107-.576L101.9 3.523a.411.411 0 0 0-.577-.107l-1.12.774a.411.411 0 0 0-.108.577l1.874 2.706.032.032h-1.74a.422.422 0 0 0-.422.422v1.388a.422.422 0 0 0 .432.448z"/><path d="M131.151 24.411v-6.368l1.602-.72a.411.411 0 0 0 .208-.535l-.577-1.254a.411.411 0 0 0-.533-.208l-.705.315V7.596h1.543a.411.411 0 0 0 .41-.41V5.77a.411.411 0 0 0-.41-.41h-1.543V3.65a.411.411 0 0 0-.411-.41h-1.41a.411.411 0 0 0-.41.41v1.687h-1.943a.411.411 0 0 0-.412.411v1.415c0 .227.185.41.412.41h1.943v9.075l-2.387 1.068a.411.411 0 0 0-.208.534l.56 1.244a.411.411 0 0 0 .535.208l1.489-.673v4.17a.347.347 0 0 1-.347.346h-1.553a.411.411 0 0 0-.411.411v1.415c0 .227.184.41.41.41h2.75a1.388 1.388 0 0 0 1.398-1.371z"/><path d="M148.59 3.31h-13.168c-.767 0-1.388.621-1.388 1.388v20.69c0 .227.184.41.41.41h1.415a.411.411 0 0 0 .411-.41V10.254h12.32a1.388 1.388 0 0 0 1.389-1.387v-4.17c0-.766-.622-1.387-1.388-1.387zm-.848 4.34a.347.347 0 0 1-.347.346H136.27V5.872c0-.192.156-.347.347-.347h10.778c.192 0 .347.155.347.347v1.777z"/><path d="M149.466 12.667h-4.804v-.998a.411.411 0 0 0-.411-.411h-1.415a.411.411 0 0 0-.41.411v.998h-4.469a.411.411 0 0 0-.41.411v1.415c0 .227.183.41.41.41h4.468v2.05h-3.32c-.767 0-1.388.622-1.388 1.389v6.074c0 .767.621 1.388 1.388 1.388h9.187c.766 0 1.388-.621 1.388-1.388v-6.08c0-.766-.622-1.388-1.388-1.388h-3.63v-2.05h4.804a.411.411 0 0 0 .411-.41v-1.41a.411.411 0 0 0-.41-.41zm-1.996 6.86v3.683a.347.347 0 0 1-.347.347h-6.849a.347.347 0 0 1-.347-.347v-3.683c0-.192.155-.347.347-.347h6.822a.347.347 0 0 1 .347.352l.027-.005z"/><path d="M95.722 4.804h-7.505c.061-.336.093-.677.096-1.02v-.18a.406.406 0 0 0-.406-.406H86.53a.406.406 0 0 0-.405.405v.182a3.822 3.822 0 0 1-1.42 2.978.4.4 0 0 0-.08.534l.763 1.153a.411.411 0 0 0 .592.096 6.01 6.01 0 0 0 1.378-1.505h2.21v1.553c0 .224.181.406.405.406H91.4a.406.406 0 0 0 .405-.406V7.041h3.913a.406.406 0 0 0 .406-.406V5.21a.406.406 0 0 0-.4-.406z"/><path d="M51.678 11.493c1.068-1.602 1.804-3.134 1.804-4.228V5.407a.416.416 0 0 0-.416-.416H50.93V3.737a.416.416 0 0 0-.417-.417H49.11a.416.416 0 0 0-.416.417v1.26h-2.392a.416.416 0 0 0-.416.416v1.35c0 .23.187.417.416.417h5.002v.085c0 1.452-3.33 5.947-5.615 8.007a.416.416 0 0 0-.043.577l.865 1.04a.416.416 0 0 0 .598.049c.459-.411 1.003-.966 1.601-1.602V25.41c0 .23.186.417.416.417h1.399c.23 0 .416-.187.416-.417V14.52l1.255 2.136a.416.416 0 0 0 .57.15l1.165-.684a.416.416 0 0 0 .15-.571l-2.403-4.057z"/><path d="M95.813 24.267l-10.452-6.785v-1.334h7.27c.192 0 .348.155.348.347v3.443c0 .224.181.405.405.405h1.426a.406.406 0 0 0 .405-.405v-4.634c0-.766-.621-1.388-1.388-1.388h-8.466v-1.462h10.025a.406.406 0 0 0 .406-.406v-1.425a.406.406 0 0 0-.406-.406H85.361V9.15a.406.406 0 0 0-.405-.405H83.53a.406.406 0 0 0-.405.405v1.068h-10.02a.406.406 0 0 0-.406.406v1.425c0 .224.182.406.406.406H83.13v1.462h-8.466c-.767 0-1.388.622-1.388 1.388v4.634c0 .224.181.405.405.405h1.426a.406.406 0 0 0 .405-.405v-3.443c0-.192.156-.347.347-.347h7.27v1.468l-.533.704a14.322 14.322 0 0 1-9.544 5.2.406.406 0 0 0-.363.4v1.415a.406.406 0 0 0 .448.405 17.813 17.813 0 0 0 9.982-4.655v4.298c0 .224.182.405.406.405h1.425a.406.406 0 0 0 .406-.405v-5.301l9.261 6.01a.4.4 0 0 0 .534-.117l.753-1.158a.4.4 0 0 0-.09-.55z"/><path d="M112.126 17.93h.817a.422.422 0 0 0 .422-.421v-1.345a.422.422 0 0 0-.422-.422h-9.694v-.422a.422.422 0 0 0-.422-.421h-1.345a.422.422 0 0 0-.422.421v.422h-.79a.422.422 0 0 0-.421.422v1.345c0 .233.189.422.421.422h.79v2.274c.001.504.292.963.748 1.18l2.53 1.195c-1.174.53-2.41.912-3.678 1.137a.411.411 0 0 0-.358.438l.102 1.361a.411.411 0 0 0 .47.379c2.1-.377 4.125-1.09 6-2.109l4.457 2.136c.202.088.438 0 .534-.198l.582-1.233a.411.411 0 0 0-.198-.534l-3.203-1.516c1.634-1.265 2.861-2.776 3.08-4.51zm-8.54 1.88a.614.614 0 0 1-.353-.534v-1.33h6.678c-.304 1.228-1.57 2.408-3.133 3.385l-3.193-1.521z"/><path d="M72.923 8.445a.411.411 0 0 0 .593.096 6.01 6.01 0 0 0 1.377-1.505h2.135v1.553c0 .224.182.406.406.406h1.425a.406.406 0 0 0 .406-.406V7.036h3.913a.406.406 0 0 0 .406-.406V5.205a.406.406 0 0 0-.406-.406h-7.473c.06-.337.093-.678.096-1.02v-.181a.406.406 0 0 0-.406-.406h-1.377a.406.406 0 0 0-.406.406v.181a3.822 3.822 0 0 1-1.42 2.979.4.4 0 0 0-.08.534l.811 1.153z"/><path d="M51.977 34.698a4.932 4.932 0 0 0-1.148-.46c-.389-.1-.772-.224-1.148-.368a2.765 2.765 0 0 1-.88-.534 1.217 1.217 0 0 1-.358-.945c.004-.164.034-.326.09-.48.066-.183.172-.35.31-.486.166-.162.364-.288.582-.368.291-.104.599-.153.908-.144a2.21 2.21 0 0 1 1.025.23c.283.138.524.35.699.613l1.068-.971a2.605 2.605 0 0 0-1.27-.886 5.215 5.215 0 0 0-1.517-.22 3.79 3.79 0 0 0-1.495.268 3.203 3.203 0 0 0-1.02.662 2.584 2.584 0 0 0-.763 1.777c-.025.522.099 1.04.358 1.495.224.356.525.657.88.88.357.23.744.41 1.149.534.416.125.799.253 1.147.385.319.114.616.28.881.49.243.216.375.53.358.855.006.245-.055.486-.176.7a1.681 1.681 0 0 1-.46.506c-.188.139-.4.244-.624.31-.216.066-.441.1-.667.101-.395 0-.785-.085-1.143-.25a2.135 2.135 0 0 1-.907-.785l-1.068.929c.333.46.793.813 1.324 1.014.561.22 1.159.333 1.762.33.446.003.89-.067 1.313-.207.39-.126.752-.325 1.067-.588.304-.26.548-.582.716-.944.182-.395.273-.826.267-1.26a2.333 2.333 0 0 0-.358-1.372 2.669 2.669 0 0 0-.902-.811z"/><path d="M57.288 35.269h4.596V34.04h-4.596v-2.888h4.938v-1.228h-6.25v9.678h6.496v-1.228h-5.184z"/><path d="M72.235 37.884h-.032l-5.328-7.959h-1.724v9.678h1.313V31.65h.027l5.386 7.954h1.671v-9.678h-1.313z"/><path d="M81.278 34.698a4.932 4.932 0 0 0-1.148-.46c-.39-.1-.772-.224-1.148-.368a2.765 2.765 0 0 1-.88-.534 1.217 1.217 0 0 1-.358-.945c.003-.164.034-.326.09-.48.066-.183.172-.35.31-.486.166-.162.364-.288.582-.368.29-.104.599-.153.907-.144a2.21 2.21 0 0 1 1.025.23c.284.138.525.35.7.613l1.067-.971a2.605 2.605 0 0 0-1.286-.892 5.215 5.215 0 0 0-1.516-.219 3.79 3.79 0 0 0-1.495.267 3.203 3.203 0 0 0-1.02.662 2.584 2.584 0 0 0-.763 1.778c-.025.522.099 1.04.358 1.494.224.357.525.658.88.881.357.23.743.41 1.148.534.417.125.8.253 1.148.384.318.115.616.28.88.491.244.216.375.53.358.855.006.244-.054.486-.176.699a1.681 1.681 0 0 1-.459.507c-.189.138-.4.243-.624.31-.217.066-.441.1-.668.101-.394 0-.784-.085-1.142-.25a2.135 2.135 0 0 1-.907-.786l-1.068.93c.34.445.801.782 1.33.97.56.221 1.158.334 1.76.332.447.002.89-.069 1.314-.208.39-.126.752-.325 1.067-.588.304-.26.548-.582.716-.944.182-.395.273-.826.267-1.26a2.333 2.333 0 0 0-.358-1.372 2.669 2.669 0 0 0-.891-.763z"/><path d="M93.352 31.142c-.455-.46-1-.824-1.601-1.067a5.525 5.525 0 0 0-4.073 0c-.601.243-1.146.606-1.601 1.067a4.97 4.97 0 0 0-1.041 1.602 5.568 5.568 0 0 0 0 4.02 4.97 4.97 0 0 0 1.04 1.6c.456.462 1 .826 1.602 1.068 1.308.52 2.765.52 4.073 0a4.746 4.746 0 0 0 1.601-1.067 4.97 4.97 0 0 0 1.041-1.602c.5-1.293.5-2.726 0-4.02a4.97 4.97 0 0 0-1.04-1.6zm-.24 5.12a3.64 3.64 0 0 1-.737 1.222 3.625 3.625 0 0 1-5.306 0 3.64 3.64 0 0 1-.736-1.222 4.447 4.447 0 0 1 0-2.995c.163-.452.413-.867.736-1.223a3.625 3.625 0 0 1 5.306 0c.324.356.574.771.737 1.223a4.447 4.447 0 0 1 0 2.995z"/><path d="M102.593 34.895c.284-.149.539-.348.752-.587a2.536 2.536 0 0 0 .635-1.676 3.448 3.448 0 0 0-.138-.934 2.183 2.183 0 0 0-.486-.876c-.265-.282-.59-.5-.95-.64a3.982 3.982 0 0 0-1.532-.251h-3.4v9.678h1.312v-4.27h1.463l2.461 4.27h1.639l-2.75-4.415c.348-.032.686-.134.994-.299zm-2.088-.705h-1.724v-3.117h1.724c.254 0 .508.022.758.064.236.035.464.11.673.224.197.11.359.273.47.47a1.89 1.89 0 0 1 0 1.601c-.111.197-.273.36-.47.47-.21.114-.437.19-.673.224-.25.042-.504.064-.758.064z"/><path d="M111.07 34.698a4.932 4.932 0 0 0-1.148-.46c-.39-.1-.773-.224-1.148-.368a2.765 2.765 0 0 1-.88-.534 1.217 1.217 0 0 1-.358-.945c.003-.164.034-.326.09-.48.066-.183.172-.35.31-.486.166-.162.364-.288.582-.368.29-.104.598-.153.907-.144a2.21 2.21 0 0 1 1.025.23c.284.138.525.35.7.613l1.067-.971a2.605 2.605 0 0 0-1.27-.886 5.215 5.215 0 0 0-1.516-.22 3.79 3.79 0 0 0-1.495.268 3.203 3.203 0 0 0-1.02.662 2.584 2.584 0 0 0-.763 1.777c-.026.522.099 1.04.358 1.495.223.356.524.657.88.88.357.23.743.41 1.148.534.417.125.8.253 1.148.385.318.114.616.28.88.49.244.216.375.53.358.855.006.245-.055.486-.176.7a1.681 1.681 0 0 1-.459.506c-.189.139-.4.244-.625.31-.216.066-.44.1-.667.101-.394 0-.784-.085-1.142-.25a2.135 2.135 0 0 1-.908-.785l-1.067.929c.332.46.793.813 1.324 1.014.56.22 1.158.333 1.761.33.446.003.89-.067 1.313-.207.39-.126.753-.325 1.068-.588.303-.26.547-.582.715-.944.183-.395.274-.826.267-1.26a2.333 2.333 0 0 0-.357-1.372 2.669 2.669 0 0 0-.903-.811z"/><path d="M127.521 32.712a4.756 4.756 0 0 0-.592-1.041 3.95 3.95 0 0 0-.945-.897 4.804 4.804 0 0 0-1.34-.625 6.278 6.278 0 0 0-1.799-.234h-3.379v9.678h3.16a5.957 5.957 0 0 0 2.29-.412 4.986 4.986 0 0 0 1.66-1.067c.439-.44.782-.965 1.01-1.543a4.863 4.863 0 0 0 .341-1.799 5.642 5.642 0 0 0-.096-.982 5.258 5.258 0 0 0-.31-1.078zm-1.313 3.63a3.24 3.24 0 0 1-.886 1.126c-.388.309-.832.54-1.308.678-.52.154-1.06.23-1.601.224h-1.655v-7.217h2.018a4.094 4.094 0 0 1 1.91.39c.453.226.849.55 1.16.95.266.353.458.756.565 1.185.09.349.14.707.15 1.068a3.582 3.582 0 0 1-.347 1.596h-.006z"/><path d="M135.63 38.434v-3.31c0-.278-.054-.553-.16-.81a1.879 1.879 0 0 0-.486-.69 2.38 2.38 0 0 0-.838-.48 3.737 3.737 0 0 0-1.223-.176 4.126 4.126 0 0 0-1.366.24 3.416 3.416 0 0 0-1.201.715l.737.764.341-.262c.128-.103.268-.19.417-.261a2.525 2.525 0 0 1 1.11-.24c.233-.006.465.034.683.117a1.34 1.34 0 0 1 .865 1.25v.271h-.902a7.895 7.895 0 0 0-1.388.118 3.737 3.737 0 0 0-1.137.384c-.307.164-.569.4-.763.689-.2.319-.299.691-.283 1.067-.007.291.053.58.176.844.114.236.28.444.486.608.212.168.455.293.715.369.279.082.568.124.86.122.446.009.888-.08 1.296-.261.402-.197.74-.504.972-.886h.027c0 .327.014.654.042.982h1.068a12.475 12.475 0 0 1-.043-.534 7.208 7.208 0 0 1-.005-.63zm-1.148-1.532a2.418 2.418 0 0 1-.096.662 1.73 1.73 0 0 1-.315.609c-.155.19-.353.341-.576.443-.27.12-.564.179-.86.17a1.842 1.842 0 0 1-1.02-.245.891.891 0 0 1-.373-.806.865.865 0 0 1 .24-.63c.173-.173.383-.305.614-.384.269-.096.549-.16.833-.187.298-.032.597-.048.897-.048h.656v.416z"/><path d="M140.883 38.621a.934.934 0 0 1-.534-.128.78.78 0 0 1-.272-.342 1.415 1.415 0 0 1-.102-.48V34.196h1.762v-1.068h-1.762v-1.82h-1.233v1.82h-1.42v1.068h1.42v3.379c0 .261 0 .534.032.784.019.249.094.49.219.705.135.231.335.417.576.534.347.149.723.216 1.1.197.179-.004.357-.02.534-.048.197-.021.39-.079.566-.17v-1.143a1.313 1.313 0 0 1-.422.15 2.626 2.626 0 0 1-.464.037z"/><path d="M149.429 38.434v-3.31c0-.278-.055-.553-.16-.81a1.879 1.879 0 0 0-.486-.69 2.386 2.386 0 0 0-.838-.48 3.737 3.737 0 0 0-1.223-.176 4.126 4.126 0 0 0-1.366.24 3.416 3.416 0 0 0-1.201.715l.736.764.342-.262c.123-.094.255-.174.395-.24a2.525 2.525 0 0 1 1.11-.24c.234-.005.466.035.684.117a1.34 1.34 0 0 1 .865 1.25v.272h-.903a7.895 7.895 0 0 0-1.388.117 3.737 3.737 0 0 0-1.137.384c-.306.164-.568.4-.763.689-.2.32-.298.691-.283 1.068-.007.29.054.58.176.843.115.236.28.444.486.609.212.168.455.293.715.368a3.064 3.064 0 0 0 2.14-.16c.403-.197.74-.504.972-.886h.027c0 .327.014.654.043.982h1.068a12.475 12.475 0 0 1-.043-.534c-.01-.181 0-.391.032-.63zm-1.148-1.532a2.418 2.418 0 0 1-.096.662 1.73 1.73 0 0 1-.315.609c-.156.19-.353.341-.576.443-.27.12-.564.179-.86.17a1.842 1.842 0 0 1-1.02-.245.891.891 0 0 1-.373-.806.865.865 0 0 1 .24-.63c.173-.173.383-.305.614-.384.269-.096.549-.16.833-.187a8.67 8.67 0 0 1 .897-.048h.656v.416z"/><path d="M27.4 39.283H8.183a2.29 2.29 0 0 0 0 4.575H27.4a2.29 2.29 0 0 0 0-4.575z"/><path d="M32.781 32.776h-13.1a2.29 2.29 0 0 0 0 4.575h13.1a2.29 2.29 0 0 0 0-4.575z"/><path d="M32.776 26.269H24.16a2.29 2.29 0 0 0 0 4.574h8.616a2.29 2.29 0 0 0 0-4.574z"/><path d="M2.797 17.824h8.616a2.29 2.29 0 0 0 0-4.575H2.797a2.29 2.29 0 0 0 0 4.575z"/><path d="M13.479 19.75a2.29 2.29 0 0 0 0 4.576h8.615a2.29 2.29 0 0 0 0-4.575H13.48z"/><path d="M2.797 11.311h13.094a2.29 2.29 0 0 0 0-4.574H2.797a2.29 2.29 0 0 0 0 4.574z"/><path d="M8.173 4.804H27.39a2.29 2.29 0 0 0 0-4.574H8.173a2.29 2.29 0 0 0 0 4.574z"/><circle fill-rule="nonzero" cx="32.776" cy="9.027" r="2.285"/><circle fill-rule="nonzero" cx="2.797" cy="35.066" r="2.285"/></g></svg>